<?xml version="1.0" ?><svg style="enable-background:new 0 0 512 512;" version="1.1" viewBox="0 0 512 512" xml:space="preserve" xmlns="http://www.w3.org/2000/svg" xmlns:xlink="http://www.w3.org/1999/xlink"><style type="text/css">
	.st0{fill:#16ADE1;}
	.st1{fill:#1B3954;}
</style><g id="Layer_1"/><g id="Layer_2"><g><g><path class="st1" d="M256,213.8c-49,0-88.9-39.9-88.9-88.9c0-49,39.9-88.9,88.9-88.9s88.9,39.9,88.9,88.9     C344.9,173.9,305,213.8,256,213.8z M256,46c-43.5,0-78.9,35.4-78.9,78.9c0,43.5,35.4,78.9,78.9,78.9s78.9-35.4,78.9-78.9     C334.9,81.4,299.5,46,256,46z"/></g><g><path class="st1" d="M256,476c-49,0-88.9-39.9-88.9-88.9c0-49,39.9-88.9,88.9-88.9s88.9,39.9,88.9,88.9     C344.9,436.1,305,476,256,476z M256,308.2c-43.5,0-78.9,35.4-78.9,78.9c0,43.5,35.4,78.9,78.9,78.9s78.9-35.4,78.9-78.9     C334.9,343.6,299.5,308.2,256,308.2z"/></g><g><path class="st0" d="M387.1,344.9c-49,0-88.9-39.9-88.9-88.9s39.9-88.9,88.9-88.9c49,0,88.9,39.9,88.9,88.9     S436.1,344.9,387.1,344.9z M387.1,177.1c-43.5,0-78.9,35.4-78.9,78.9s35.4,78.9,78.9,78.9c43.5,0,78.9-35.4,78.9-78.9     S430.6,177.1,387.1,177.1z"/></g><g><path class="st0" d="M124.9,344.9C75.9,344.9,36,305,36,256s39.9-88.9,88.9-88.9c49,0,88.9,39.9,88.9,88.9     S173.9,344.9,124.9,344.9z M124.9,177.1C81.4,177.1,46,212.5,46,256s35.4,78.9,78.9,78.9c43.5,0,78.9-35.4,78.9-78.9     S168.4,177.1,124.9,177.1z"/></g><g><g><path class="st1" d="M245.5,169.5h-34c-2.8,0-5-2.2-5-5V85.3c0-2.8,2.2-5,5-5h34c2.8,0,5,2.2,5,5v79.1      C250.5,167.2,248.2,169.5,245.5,169.5z M216.5,159.5h24V90.3h-24V159.5z"/></g><g><path class="st1" d="M300.5,169.5h-34c-2.8,0-5-2.2-5-5V85.3c0-2.8,2.2-5,5-5h34c2.8,0,5,2.2,5,5v79.1      C305.5,167.2,303.3,169.5,300.5,169.5z M271.5,159.5h24V90.3h-24V159.5z"/></g></g><g><path class="st1" d="M426.6,300.6h-79.1c-2.8,0-5-2.2-5-5v-79.1c0-2.8,2.2-5,5-5h79.1c2.8,0,5,2.2,5,5v79.1     C431.6,298.3,429.4,300.6,426.6,300.6z M352.5,290.6h69.1v-69.1h-69.1V290.6z"/></g><g><path class="st1" d="M97,308.1c-0.9,0-1.7-0.2-2.5-0.7c-1.5-0.9-2.5-2.5-2.5-4.3v-94.1c0-1.8,1-3.4,2.5-4.3c1.5-0.9,3.5-0.9,5,0     l81.5,47.1c1.5,0.9,2.5,2.5,2.5,4.3s-1,3.4-2.5,4.3l-81.5,47.1C98.7,307.8,97.9,308.1,97,308.1z M102,217.6v76.8l66.5-38.4     L102,217.6z"/></g><g><path class="st1" d="M222.1,443.1c-11.1,0-20.4-5.8-23.5-14.8c-4.3-12.5,4.1-26.4,19.2-31.6c0.7-0.2,1.3-0.4,2-0.6v-51.8     c0-2.6,1.9-4.7,4.5-5l79.5-8.6c1.4-0.2,2.8,0.3,3.9,1.3s1.7,2.3,1.7,3.7v75.8c0,4.5-1.4,8.9-4.2,13c-3.6,5.4-9.4,9.7-16.1,12     c-3.7,1.3-7.4,1.9-11.2,1.9c-11.1,0-20.4-5.8-23.5-14.8c-0.5-1.3-0.8-2.7-1-4c-0.5,3.4-1.9,6.7-3.9,9.7c-3.7,5.4-9.4,9.7-16.1,12     C229.6,442.4,225.8,443.1,222.1,443.1z M229.8,348.7V400c0,2.5-1.8,4.6-4.3,4.9c-1.5,0.2-3,0.6-4.4,1.1     c-9.8,3.4-15.5,11.7-13,18.9c1.7,4.9,7.2,8.1,14,8.1c2.6,0,5.3-0.5,7.9-1.4c4.7-1.6,8.7-4.5,11.2-8.2c1.6-2.4,2.5-4.9,2.5-7.4     v-50.6c0-2.6,1.9-4.7,4.5-5l31.9-3.5c1.4-0.2,2.8,0.3,3.9,1.3c1.1,0.9,1.7,2.3,1.7,3.7v33.1c0,2.5-1.8,4.6-4.2,4.9     c-1.5,0.2-3,0.6-4.4,1.1c-9.8,3.4-15.5,11.7-13,18.9c1.7,4.9,7.2,8.1,14,8.1c2.6,0,5.3-0.5,7.9-1.4c4.7-1.6,8.7-4.5,11.1-8.2     c1.6-2.4,2.5-4.9,2.5-7.4v-70.2L229.8,348.7z M253.6,370.1v42.4c1.8-8.9,9.2-16.9,19.9-20.7c0.7-0.2,1.3-0.4,2-0.6v-23.5     L253.6,370.1z"/></g></g></g></svg>