<?xml version="1.0" ?><svg style="enable-background:new 0 0 512 512;" version="1.1" viewBox="0 0 512 512" xml:space="preserve" xmlns="http://www.w3.org/2000/svg" xmlns:xlink="http://www.w3.org/1999/xlink"><style type="text/css">
	.st0{fill:#16ADE1;}
	.st1{fill:#1B3954;}
</style><g id="Layer_1"/><g id="Layer_2"><g><path class="st0" d="M465.7,195.1V237l-58,6.3v168.3c0,7.6-2.7,15.3-7.4,22.3c-7.1,10.5-19,19.7-33.9,24.8    c-29.3,10.2-59.1,1-66.6-20.4c-7.5-21.5,10.3-47.1,39.6-57.3c9.1-3.2,18.2-4.5,26.7-4.1V205.9l41.6-4.5L465.7,195.1z"/><path class="st1" d="M325.9,49.1v214.1c0,7.6-2.7,15.3-7.4,22.3c-7.1,10.6-19,19.7-33.9,24.8c-29.3,10.2-59.1,1-66.6-20.4    c-7.5-21.5,10.3-47.1,39.6-57.3c9.1-3.2,18.2-4.5,26.7-4.1v-133l-128.4,13.9v168.3c0,7.6-2.7,15.3-7.4,22.3    c-7.1,10.5-19,19.7-33.9,24.8c-29.3,10.2-59.1,1-66.6-20.4c-7.5-21.5,10.3-47.1,39.6-57.3c9.1-3.2,18.2-4.5,26.7-4.1V72l41.6-4.5    l128.4-13.9L325.9,49.1z"/><circle class="st1" cx="178.3" cy="353.1" r="18.9"/><circle class="st1" cx="269.9" cy="362.4" r="12.1"/><circle class="st0" cx="442.7" cy="66.1" r="12.1"/><circle class="st0" cx="221.5" cy="425.3" r="28.3"/><circle class="st0" cx="389.6" cy="126.8" r="28.3"/></g></g></svg>